<?xml version="1.0" encoding="utf-8"?>
<!-- Generator: Adobe Illustrator 23.0.1, SVG Export Plug-In . SVG Version: 6.00 Build 0)  -->
<svg version="1.1" id="Layer_1" xmlns="http://www.w3.org/2000/svg" xmlns:xlink="http://www.w3.org/1999/xlink" x="0px" y="0px"
	 viewBox="0 0 2500 2500" style="enable-background:new 0 0 2500 2500;" xml:space="preserve">
<style type="text/css">
	.st0{fill:#FFFFFF;}
</style>
<g>
	<path class="st0" d="M2240.72,198.89l-982.2,2251.64L274.86,198.76l861.17,739.87c32.18,29.46,75.04,47.42,122.11,47.42
		c46.71,0,89.3-17.73,121.39-46.84L2240.72,198.89z"/>
	<path class="st0" d="M1332.67,56.91c-19.24-18.32-45.27-29.56-73.94-29.56c-26.27,0-50.33,9.43-68.98,25.12l-301.12,260
		c-13.3,11.8-21.68,29.01-21.68,48.18c0,19.02,8.26,36.12,21.38,47.9l299.48,258.38c18.91,16.68,43.74,26.8,70.92,26.8
		c30.39,0,57.84-12.65,77.35-32.96l293.9-252.99c12.62-11.75,20.53-28.52,20.53-47.14c0-19.67-8.81-37.27-22.71-49.09L1332.67,56.91
		z"/>
</g>
</svg>
