<?xml version="1.0" encoding="iso-8859-1"?>
<!-- Generator: Adobe Illustrator 19.0.0, SVG Export Plug-In . SVG Version: 6.00 Build 0)  -->
<svg version="1.1" id="Capa_1" xmlns="http://www.w3.org/2000/svg" xmlns:xlink="http://www.w3.org/1999/xlink" x="0px" y="0px"
	 viewBox="0 0 512 512" style="enable-background:new 0 0 512 512;" xml:space="preserve">
<g>
	<g>
		<path d="M508.869,152.448l-27.584-27.584c-2.005-2.005-4.715-3.115-7.552-3.115c-2.837,0-5.568,1.131-7.552,3.136
			c-6.144,6.144-18.197,1.195-18.197-7.552c0-2.837,1.109-5.525,3.136-7.552c4.139-4.16,4.139-10.923-0.021-15.083l-33.835-33.835
			c-2.005-2.005-4.715-3.115-7.552-3.115c-2.837,0-5.568,1.131-7.552,3.136c-6.123,6.144-18.176,1.173-18.176-7.552
			c0-2.837,1.109-5.525,3.136-7.552c4.139-4.16,4.139-10.923-0.021-15.083L359.514,3.115C357.53,1.131,354.821,0,351.984,0h-0.021
			c-2.859,0-5.568,1.152-7.552,3.157C215.664,133.419,20.805,329.621,5.21,342.848c-1.259,0.725-2.325,1.728-3.2,2.965
			c-3.051,4.245-2.56,10.027,1.131,13.717l149.333,149.333c2.048,2.091,4.779,3.136,7.509,3.136s5.461-1.045,7.552-3.115
			l341.333-341.333C513.029,163.371,513.029,156.629,508.869,152.448z M95.984,362.667c-2.731,0-5.461-1.045-7.552-3.115
			c-4.16-4.16-4.16-10.923,0-15.083l106.667-106.667c4.16-4.16,10.923-4.16,15.083,0c4.16,4.16,4.16,10.923,0,15.083
			L103.514,359.552C101.445,361.621,98.714,362.667,95.984,362.667z M338.202,210.219l-192,192
			c-2.091,2.069-4.821,3.115-7.552,3.115s-5.461-1.045-7.552-3.115c-4.16-4.16-4.16-10.923,0-15.083l192-192
			c4.16-4.16,10.923-4.16,15.083,0C342.341,199.296,342.362,206.037,338.202,210.219z"/>
	</g>
</g>
<g>
</g>
<g>
</g>
<g>
</g>
<g>
</g>
<g>
</g>
<g>
</g>
<g>
</g>
<g>
</g>
<g>
</g>
<g>
</g>
<g>
</g>
<g>
</g>
<g>
</g>
<g>
</g>
<g>
</g>
</svg>
