<svg height="448pt" viewBox="0 0 448 448" width="448pt" xmlns="http://www.w3.org/2000/svg"><path d="m200 206.953125v98.09375l73.574219-49.046875zm0 0"/><path d="m224 360c57.4375 0 104-46.5625 104-104s-46.5625-104-104-104-104 46.5625-104 104c.066406 57.410156 46.589844 103.933594 104 104zm-40-168c0-2.949219 1.625-5.664062 4.226562-7.054688 2.601563-1.390624 5.757813-1.238281 8.214844.398438l96 64c2.222656 1.484375 3.558594 3.980469 3.558594 6.65625s-1.335938 5.171875-3.558594 6.65625l-96 64c-2.457031 1.636719-5.613281 1.789062-8.214844.398438-2.601562-1.390626-4.226562-4.105469-4.226562-7.054688zm0 0"/><path d="m0 0v48h204.6875l-48-48zm0 0"/><path d="m0 448h448v-384h-448zm224-312c66.273438 0 120 53.726562 120 120s-53.726562 120-120 120-120-53.726562-120-120c.074219-66.242188 53.757812-119.925781 120-120zm0 0"/></svg>